<?xml version="1.0" encoding="UTF-8"?>
<svg version="1.1" xmlns="http://www.w3.org/2000/svg" width="225" height="225">
<path d="M0 0 C74.25 0 148.5 0 225 0 C225 74.25 225 148.5 225 225 C150.75 225 76.5 225 0 225 C0 150.75 0 76.5 0 0 Z " fill="#FEFEFE" transform="translate(0,0)"/>
<path d="M0 0 C9.9 0 19.8 0 30 0 C31.98 3.42375 33.96 6.8475 36 10.375 C36.62648437 11.45313965 37.25296875 12.5312793 37.8984375 13.64208984 C38.62933594 14.91366943 38.62933594 14.91366943 39.375 16.2109375 C39.87773438 17.08024902 40.38046875 17.94956055 40.8984375 18.84521484 C42 21 42 21 42 23 C44.53801278 20.69656607 46.07139703 18.33871372 47.69921875 15.33203125 C48.13838623 14.52741455 48.57755371 13.72279785 49.0300293 12.89379883 C49.57699463 11.87697021 50.12395996 10.8601416 50.6875 9.8125 C52.440625 6.574375 54.19375 3.33625 56 0 C67.22 0 78.44 0 90 0 C96.6875 12.0625 96.6875 12.0625 98.88427734 16.06860352 C102.14407191 21.99630698 105.46479444 27.81883192 109.1015625 33.52734375 C109.72716064 34.53724365 110.35275879 35.54714355 110.99731445 36.58764648 C112.18277847 38.48965055 113.40421357 40.36982752 114.66479492 42.22290039 C116.2972924 44.88908942 117.40938839 46.92645026 118 50 C116.71213077 54.16819093 114.46459915 57.43335522 112 61 C111.19865635 62.43941914 110.41726648 63.89028518 109.6640625 65.35546875 C109.15166016 66.31743164 109.15166016 66.31743164 108.62890625 67.29882812 C108.29761719 67.92208984 107.96632813 68.54535156 107.625 69.1875 C107.09326172 70.18620117 107.09326172 70.18620117 106.55078125 71.20507812 C105.70002447 72.80312126 104.8499344 74.40151932 104 76 C103.34 76 102.68 76 102 76 C101.6690332 75.38294189 101.33806641 74.76588379 100.99707031 74.13012695 C88.56046248 50.81402204 88.56046248 50.81402204 75.1640625 28.04296875 C74 26 74 26 74 24 C73.34 24 72.68 24 72 24 C71.68482422 25.16208984 71.68482422 25.16208984 71.36328125 26.34765625 C69.49197493 31.36104136 66.85878529 35.81119727 64.1875 40.4375 C63.02067294 42.47907501 61.85401147 44.52074465 60.6875 46.5625 C60.08421875 47.614375 59.4809375 48.66625 58.859375 49.75 C55.77960532 55.13312683 52.73513085 60.53613559 49.6875 65.9375 C48.58740387 67.88420743 47.48715881 69.83083072 46.38671875 71.77734375 C45.92483154 72.59452881 45.46294434 73.41171387 44.98706055 74.25366211 C44.49846558 75.11809937 44.49846558 75.11809937 44 76 C43.34 76 42.68 76 42 76 C41.58339111 75.24195068 41.16678223 74.48390137 40.73754883 73.70288086 C31.00279526 55.9993245 21.1650962 38.36006195 11.17871094 20.796875 C9.34666387 17.57384691 7.51705482 14.34944326 5.6875 11.125 C4.83248901 9.62477295 4.83248901 9.62477295 3.96020508 8.09423828 C3.44095459 7.17884277 2.9217041 6.26344727 2.38671875 5.3203125 C1.92483154 4.50836426 1.46294434 3.69641602 0.98706055 2.85986328 C0 1 0 1 0 0 Z " fill="#05AA6D" transform="translate(43,59)"/>
<path d="M0 0 C7.59 0 15.18 0 23 0 C23 5.56815039 22.61868362 6.02419058 19 9.8125 C18.2575 10.60269531 17.515 11.39289062 16.75 12.20703125 C16.1725 12.79871094 15.595 13.39039063 15 14 C15.928125 14.598125 16.85625 15.19625 17.8125 15.8125 C18.864375 16.534375 19.91625 17.25625 21 18 C21.61875 18.4125 22.2375 18.825 22.875 19.25 C24.82078366 22.27677459 24.48409442 25.57099785 24 29 C22.13277421 33.56432971 19.36045847 35.77863437 15 38 C9.66028385 38.95923045 5.59001909 37.95072656 1 35 C0.34 34.01 -0.32 33.02 -1 32 C0.32 30.68 1.64 29.36 3 28 C3.99 28.66 4.98 29.32 6 30 C9.42017557 30.39958487 12.87293041 30.5635348 16 29 C16.2502157 26.08365871 16.2502157 26.08365871 16 23 C12.71536341 20.81024227 9.79303725 20.00193437 6 19 C6.32989403 13.55674846 9.45737227 10.84412796 13 7 C8.71 6.67 4.42 6.34 0 6 C0 4.02 0 2.04 0 0 Z " fill="#12AD72" transform="translate(158,47)"/>
<path d="M0 0 C5.57894737 3.15789474 5.57894737 3.15789474 7 6 C7.5811138 13.08958838 7.5811138 13.08958838 5.125 16.9375 C2.39102013 19.5910687 1.52615669 19.95036258 -2.3125 20.3125 C-6.57536111 19.95124058 -8.01992054 18.98007946 -11 16 C-12.75027469 12.49945062 -12.68972059 8.80988517 -12 5 C-9.09819442 0.62218951 -5.1097787 -0.95808351 0 0 Z " fill="#0FAC71" transform="translate(144,158)"/>
<path d="M0 0 C2.5647293 1.50012468 4.89183465 2.89183465 7 5 C7.58169863 9.61544489 7.6241677 13.00133167 5.125 17 C2.38262878 19.58105526 1.48737793 19.95402095 -2.3125 20.3125 C-6.57536111 19.95124058 -8.01992054 18.98007946 -11 16 C-12.60086627 12.79826746 -12.49917089 9.47422941 -12 6 C-8.64695006 0.74688842 -6.19417861 -0.5955941 0 0 Z " fill="#0FAC71" transform="translate(120,158)"/>
<path d="M0 0 C1.32 0 2.64 0 4 0 C4.33 3.63 4.66 7.26 5 11 C5.99 10.34 6.98 9.68 8 9 C11.39380178 9.1444171 13.40840394 9.57303121 16.17578125 11.5703125 C18.66619638 14.88731081 18.44499007 17.78270199 18.25 21.75 C18.23195313 22.44738281 18.21390625 23.14476562 18.1953125 23.86328125 C18.14838554 25.57611539 18.07664605 27.28823824 18 29 C16.35 29 14.7 29 13 29 C12.93941406 28.07316406 12.87882812 27.14632812 12.81640625 26.19140625 C12.73261719 24.99386719 12.64882812 23.79632813 12.5625 22.5625 C12.48128906 21.36753906 12.40007812 20.17257813 12.31640625 18.94140625 C12.32343886 16.11429756 12.32343886 16.11429756 11 15 C9.33382885 14.95936168 7.66611905 14.957279 6 15 C4.71553081 17.56893838 4.67022856 19.76576337 4.4375 22.625 C4.31181641 24.12933594 4.31181641 24.12933594 4.18359375 25.6640625 C4.12300781 26.43492187 4.06242187 27.20578125 4 28 C2.68 28 1.36 28 0 28 C0 18.76 0 9.52 0 0 Z " fill="#10AC71" transform="translate(85,149)"/>
<path d="M0 0 C2 2 2 2 2 5 C0.35 5 -1.3 5 -3 5 C-3 4.34 -3 3.68 -3 3 C-4.32 3 -5.64 3 -7 3 C-6.67 3.99 -6.34 4.98 -6 6 C-3.68895182 7.05047644 -1.35416349 8.05007438 1 9 C1.66 9.66 2.32 10.32 3 11 C2.79278074 13.69385039 2.30158239 15.51411726 0.875 17.8125 C-2.11796935 19.70804726 -4.54995589 19.36316254 -8 19 C-10.4375 17.6875 -10.4375 17.6875 -12 16 C-12 15.01 -12 14.02 -12 13 C-9.03 13.33 -6.06 13.66 -3 14 C-3 13.34 -3 12.68 -3 12 C-3.56589844 11.85304687 -4.13179687 11.70609375 -4.71484375 11.5546875 C-6.96689219 10.86601188 -8.94687612 10.15784135 -11 9 C-12.25 6.0625 -12.25 6.0625 -12 3 C-8.89164541 -2.27068821 -5.30959075 -1.19893985 0 0 Z " fill="#13AD72" transform="translate(179,159)"/>
<path d="M0 0 C2.875 1.5 2.875 1.5 5 3 C4.01 4.485 4.01 4.485 3 6 C0.8359375 6.29296875 0.8359375 6.29296875 -1.625 6.1875 C-2.44226563 6.16042969 -3.25953125 6.13335937 -4.1015625 6.10546875 C-5.04128906 6.05326172 -5.04128906 6.05326172 -6 6 C-7.01540112 10.10223585 -7.01540112 10.10223585 -6 14 C-5.37351562 13.96519531 -4.74703125 13.93039063 -4.1015625 13.89453125 C-3.28429687 13.86746094 -2.46703125 13.84039062 -1.625 13.8125 C-0.81289062 13.77769531 -0.00078125 13.74289063 0.8359375 13.70703125 C1.55007812 13.80371094 2.26421875 13.90039062 3 14 C3.99 15.485 3.99 15.485 5 17 C2.52590535 19.37513086 1.06614352 19.99020096 -2.375 20.5 C-7.09233443 19.84933318 -8.87416836 18.57237902 -12 15 C-13.11825222 12.23558968 -13.46136141 9.95271304 -13 7 C-9.86048291 1.30962528 -6.34924788 -0.49798023 0 0 Z " fill="#17AF75" transform="translate(75,158)"/>
<path d="M0 0 C1.9375 1.4375 1.9375 1.4375 3 3 C3 3.66 3 4.32 3 5 C-0.19902639 5.08886184 -2.92677456 4.91058531 -6 4 C-6 4.66 -6 5.32 -6 6 C-5.15115234 6.30744141 -5.15115234 6.30744141 -4.28515625 6.62109375 C-3.55167969 6.89050781 -2.81820312 7.15992188 -2.0625 7.4375 C-1.33160156 7.70433594 -0.60070312 7.97117188 0.15234375 8.24609375 C2 9 2 9 3 10 C3.3125 12.875 3.3125 12.875 3 16 C0.63942631 18.83268842 -0.88066188 18.98743809 -4.5625 19.375 C-8 19 -8 19 -9.9375 17.6875 C-11 16 -11 16 -11 13 C-9.68 13 -8.36 13 -7 13 C-7 13.66 -7 14.32 -7 15 C-5.35 14.67 -3.7 14.34 -2 14 C-2 13.34 -2 12.68 -2 12 C-2.56589844 11.79503906 -3.13179687 11.59007812 -3.71484375 11.37890625 C-4.44832031 11.10949219 -5.18179688 10.84007812 -5.9375 10.5625 C-6.66839844 10.29566406 -7.39929687 10.02882812 -8.15234375 9.75390625 C-10 9 -10 9 -11 8 C-11.3125 5.125 -11.3125 5.125 -11 2 C-7.82062869 -1.94242042 -4.58979099 -1.16831044 0 0 Z " fill="#0EAC70" transform="translate(55,159)"/>
<path d="M0 0 C1.32 0 2.64 0 4 0 C4 9.24 4 18.48 4 28 C2.68 28 1.36 28 0 28 C0 18.76 0 9.52 0 0 Z " fill="#01A768" transform="translate(157,149)"/>
<path d="M0 0 C3.125 0.25 3.125 0.25 5.0625 1.375 C6.125 3.25 6.125 3.25 6 6.3125 C5.125 9.25 5.125 9.25 2.125 11.25 C-0.4375 11.0625 -0.4375 11.0625 -2.875 10.25 C-4.875 7.25 -4.875 7.25 -4.5625 4.125 C-3.65202703 0.31756757 -3.65202703 0.31756757 0 0 Z " fill="#EEF8F4" transform="translate(140.875,162.75)"/>
<path d="M0 0 C3.125 0.25 3.125 0.25 5.0625 1.375 C6.125 3.25 6.125 3.25 6 6.3125 C5.125 9.25 5.125 9.25 2.125 11.25 C-0.4375 11.0625 -0.4375 11.0625 -2.875 10.25 C-4.875 7.25 -4.875 7.25 -4.5625 4.125 C-3.65202703 0.31756757 -3.65202703 0.31756757 0 0 Z " fill="#EFF9F5" transform="translate(116.875,162.75)"/>
<path d="M0 0 C7.75 0.75 7.75 0.75 10 3 C10 3.99 10 4.98 10 6 C8.35 6 6.7 6 5 6 C5 5.01 5 4.02 5 3 C4.360625 2.87625 3.72125 2.7525 3.0625 2.625 C2.381875 2.41875 1.70125 2.2125 1 2 C0.67 1.34 0.34 0.68 0 0 Z " fill="#1EB179" transform="translate(171,158)"/>
<path d="M0 0 C6.47556391 0.61090226 6.47556391 0.61090226 8.9375 2.4375 C10 4 10 4 10 6 C8.35 6 6.7 6 5 6 C4.67 5.34 4.34 4.68 4 4 C3.01 3.34 2.02 2.68 1 2 C0.67 1.34 0.34 0.68 0 0 Z " fill="#1EB179" transform="translate(48,158)"/>
<path d="M0 0 C1.98 0.66 3.96 1.32 6 2 C5.67 2.99 5.34 3.98 5 5 C3.35 5 1.7 5 0 5 C0 4.34 0 3.68 0 3 C-1.32 3 -2.64 3 -4 3 C-4.33 3.66 -4.66 4.32 -5 5 C-5 4.01 -5 3.02 -5 2 C-3.35 2 -1.7 2 0 2 C0 1.34 0 0.68 0 0 Z " fill="#D3EEE4" transform="translate(48,169)"/>
<path d="M0 0 C1.98 0.66 3.96 1.32 6 2 C5.67 2.99 5.34 3.98 5 5 C1.97580475 4.41196203 -1.01758453 3.77321882 -4 3 C-4.33 3.66 -4.66 4.32 -5 5 C-5 4.01 -5 3.02 -5 2 C-3.35 2 -1.7 2 0 2 C0 1.34 0 0.68 0 0 Z " fill="#E1F4EC" transform="translate(171,169)"/>
<path d="M0 0 C4.455 0.99 4.455 0.99 9 2 C7.68 2.33 6.36 2.66 5 3 C5 3.66 5 4.32 5 5 C3.02 4.34 1.04 3.68 -1 3 C-0.67 2.01 -0.34 1.02 0 0 Z " fill="#D8F0E7" transform="translate(49,162)"/>
<path d="M0 0 C1.32 0 2.64 0 4 0 C4 0.66 4 1.32 4 2 C5.65 2 7.3 2 9 2 C8.01 2.99 7.02 3.98 6 5 C4.02 4.34 2.04 3.68 0 3 C0 2.01 0 1.02 0 0 Z " fill="#E5F5EF" transform="translate(172,162)"/>
</svg>
