<svg id="visual" viewBox="0 0 900 600" width="900" height="600" xmlns="http://www.w3.org/2000/svg" xmlns:xlink="http://www.w3.org/1999/xlink" version="1.1"><rect x="0" y="0" width="900" height="600" fill="#002233"></rect><path d="M0 501L30 492C60 483 120 465 180 466.7C240 468.3 300 489.7 360 497.8C420 506 480 501 540 498.7C600 496.3 660 496.7 720 489.7C780 482.7 840 468.3 870 461.2L900 454L900 601L870 601C840 601 780 601 720 601C660 601 600 601 540 601C480 601 420 601 360 601C300 601 240 601 180 601C120 601 60 601 30 601L0 601Z" fill="#D9EEE1" stroke-linecap="round" stroke-linejoin="miter"></path></svg>